<?xml version="1.0" standalone="no"?>
<!DOCTYPE svg PUBLIC "-//W3C//DTD SVG 20010904//EN"
 "http://www.w3.org/TR/2001/REC-SVG-20010904/DTD/svg10.dtd">
<svg version="1.0" xmlns="http://www.w3.org/2000/svg"
 width="300.000000pt" height="300.000000pt" viewBox="0 0 300.000000 300.000000"
 preserveAspectRatio="xMidYMid meet">
<metadata>
Created by potrace 1.10, written by Peter Selinger 2001-2011
</metadata>
<g transform="translate(0.000000,300.000000) scale(0.100000,-0.100000)"
fill="#000000" stroke="none">
<path d="M1452 2850 c-26 -24 -28 -57 -6 -88 31 -45 124 -16 124 38 0 28 -44
70 -73 70 -13 0 -33 -9 -45 -20z m66 -49 c-4 -44 -31 -50 -36 -8 -5 39 4 58
23 51 12 -5 15 -17 13 -43z"/>
<path d="M1347 2803 c-15 -16 -15 -18 0 -35 13 -15 14 -21 4 -31 -12 -12 -23
-3 -34 28 -2 6 -13 2 -24 -8 -20 -17 -20 -18 18 -60 22 -23 39 -46 39 -50 0
-4 11 0 23 10 l24 17 -21 17 c-16 14 -18 20 -9 29 13 14 33 5 33 -16 0 -18 9
-18 31 2 17 15 16 18 -16 53 -19 20 -35 42 -35 49 0 17 -13 15 -33 -5z"/>
<path d="M1612 2796 c-6 -13 -23 -34 -39 -47 l-28 -23 38 -35 c35 -32 39 -33
55 -18 13 14 14 17 2 17 -8 0 -21 4 -29 9 -12 8 -9 15 14 43 16 18 32 32 37
31 17 -6 7 15 -16 30 -22 15 -24 14 -34 -7z"/>
<path d="M1710 2726 c0 -7 -17 -29 -38 -48 -36 -33 -37 -35 -19 -49 17 -13 23
-11 62 29 43 43 43 44 24 63 -23 23 -29 24 -29 5z"/>
<path d="M1215 2680 c-37 -38 -38 -41 -22 -57 16 -16 17 -16 17 5 0 12 3 22 8
21 13 -1 65 -70 58 -77 -4 -3 -34 3 -66 15 l-58 21 -22 -23 -22 -23 21 -21
c11 -11 27 -34 36 -52 15 -27 15 -31 2 -26 -9 3 -17 -2 -20 -14 -6 -22 -35
-25 -62 -5 -23 17 -14 43 17 48 l23 3 -24 14 c-22 12 -26 11 -43 -9 -10 -12
-18 -32 -18 -44 0 -30 40 -66 72 -66 24 0 58 27 58 47 0 5 9 18 20 28 17 15
18 20 5 29 -12 10 -12 14 1 31 14 18 17 18 26 4 9 -13 18 -7 58 35 l48 50 -39
28 c-44 31 -50 48 -18 48 18 0 19 2 9 15 -18 21 -21 20 -65 -25z"/>
<path d="M1730 2640 c-32 -32 -25 -70 18 -112 30 -29 41 -35 51 -25 9 9 14 9
21 -3 13 -20 13 -40 0 -40 -6 0 -3 -11 6 -25 l16 -25 38 58 37 57 -19 22 c-15
16 -25 19 -37 13 -9 -5 -33 -16 -55 -25 -32 -12 -37 -13 -33 -1 3 8 -1 17 -9
20 -21 8 -17 54 6 66 25 13 40 5 40 -22 0 -17 2 -18 15 -8 21 18 19 36 -7 54
-31 22 -64 20 -88 -4z"/>
<path d="M1435 2428 c-26 -31 -27 -35 -21 -115 8 -95 4 -107 -62 -175 -30 -31
-48 -44 -53 -36 -4 6 -2 20 4 30 9 13 9 21 1 26 -6 4 -14 16 -18 26 -6 19 -8
19 -31 -5 -18 -18 -25 -39 -30 -89 -3 -36 -13 -75 -21 -87 -8 -13 -10 -23 -5
-23 5 0 13 5 16 10 14 23 25 7 25 -36 0 -25 4 -43 9 -40 11 7 21 -42 21 -100
0 -33 -4 -44 -16 -44 -11 0 -14 -8 -12 -32 2 -20 8 -32 16 -30 8 1 12 -11 12
-35 0 -26 -3 -34 -9 -24 -10 16 -31 6 -31 -15 0 -8 -9 -14 -20 -14 -25 0 -25
18 1 50 14 17 22 21 26 13 2 -7 9 -13 15 -13 6 0 3 9 -7 20 l-19 21 -20 -26
c-20 -25 -21 -38 -19 -223 2 -321 1 -302 18 -296 10 4 15 0 15 -15 0 -15 -5
-21 -16 -19 -11 2 -20 -7 -26 -25 -14 -39 -2 -77 22 -77 11 0 20 -7 20 -15 0
-8 -7 -15 -15 -15 -9 0 -15 -9 -15 -25 0 -18 4 -23 16 -18 12 4 15 1 12 -13
-2 -10 -10 -19 -18 -19 -10 0 -16 -12 -18 -38 -2 -24 -10 -42 -23 -50 -23 -14
-25 -43 -4 -51 17 -6 21 -46 5 -46 -5 0 -10 -4 -10 -9 0 -4 21 -3 48 4 57 15
488 12 571 -5 70 -13 74 -13 67 6 -3 8 1 28 9 43 13 26 13 30 -5 46 -12 11
-19 29 -18 50 1 41 -7 54 -31 48 -22 -6 -38 25 -16 33 8 3 19 3 25 -1 6 -4 10
9 10 35 0 23 5 50 11 62 6 11 8 35 5 54 -6 31 -9 33 -36 27 -26 -5 -30 -3 -30
17 0 18 4 22 25 18 23 -5 25 -2 24 31 -1 20 -3 28 -6 19 -2 -10 -13 -18 -24
-18 -14 0 -19 7 -19 26 0 23 3 26 26 21 35 -6 51 32 34 84 -8 23 -10 62 -6
105 3 38 6 78 6 89 -3 110 -6 144 -13 151 -4 4 -6 -3 -5 -17 4 -30 -24 -33
-32 -4 -5 21 -30 33 -30 15 0 -5 -4 -10 -10 -10 -5 0 -10 11 -10 25 0 15 6 25
14 25 20 0 23 15 18 118 -3 77 -6 91 -18 82 -7 -7 -18 -9 -23 -6 -16 10 0 38
18 33 14 -3 16 7 17 72 1 42 3 94 5 115 3 25 0 41 -9 43 -7 3 -10 -1 -6 -10 3
-8 -2 -17 -10 -20 -24 -9 -29 10 -8 31 12 12 16 25 12 32 -9 14 -30 5 -30 -13
0 -7 -9 -18 -21 -25 -16 -10 -18 -16 -9 -27 6 -8 7 -16 2 -19 -5 -3 -30 17
-56 44 -50 53 -52 63 -37 170 13 92 -11 130 -82 130 -27 0 -41 -7 -62 -32z
m100 -63 c41 -40 24 -143 -25 -156 -21 -6 -22 -7 -4 -8 29 -1 35 -10 23 -32
-20 -39 -85 -10 -78 34 2 6 -3 30 -9 52 -17 59 -15 73 17 106 36 35 45 36 76
4z m-252 -209 c6 -16 -11 -36 -30 -36 -16 0 -17 22 -1 38 16 16 25 15 31 -2z
m179 -7 c21 -15 26 -25 19 -32 -8 -8 -18 -4 -36 13 -43 40 -32 53 17 19z m108
15 c0 -3 -11 -15 -25 -26 -14 -11 -25 -23 -25 -28 0 -5 -5 -21 -11 -37 -8 -22
-12 -24 -19 -13 -15 24 -12 50 8 57 9 4 26 17 37 30 19 22 35 30 35 17z m-282
-82 c3 -18 -1 -22 -22 -22 -19 0 -26 5 -26 18 0 39 43 43 48 4z m130 9 c8 -3
-34 -82 -66 -126 -50 -66 -61 -89 -22 -45 17 19 47 61 67 93 36 57 58 71 70
41 8 -21 -23 -86 -85 -178 -42 -61 -51 -80 -41 -87 21 -13 29 -11 29 7 0 11
-6 14 -17 10 -15 -5 -14 -3 2 10 11 8 19 20 18 25 -2 5 2 9 7 9 6 0 10 4 10 9
0 14 52 91 62 91 5 0 3 -10 -3 -22 -17 -33 -63 -103 -69 -106 -3 -1 -4 -22 -2
-47 3 -30 9 -45 18 -45 8 0 14 -5 14 -11 0 -5 -4 -7 -10 -4 -6 3 -7 -1 -4 -9
3 -9 2 -16 -4 -16 -10 0 -25 37 -23 58 1 6 -3 13 -9 13 -5 1 -16 2 -22 3 -7 0
-14 7 -14 14 -4 36 -4 37 -14 22 -13 -20 -13 -80 1 -80 6 0 8 -8 4 -19 -3 -12
0 -21 10 -25 9 -3 13 -11 10 -16 -5 -8 -11 -7 -21 1 -12 9 -12 7 -4 -17 6 -16
21 -34 34 -40 21 -10 25 -8 41 19 16 27 19 28 34 13 14 -15 14 -18 1 -26 -12
-8 -9 -10 13 -10 32 0 35 -15 7 -30 -32 -17 -42 -48 -45 -142 -3 -94 -12 -116
-42 -103 -17 8 -17 8 -1 12 16 4 16 6 3 19 -22 22 -19 47 4 39 16 -5 18 -1 15
26 -5 41 -14 51 -14 16 0 -15 -4 -27 -10 -27 -5 0 -8 10 -6 23 3 12 5 31 5 41
1 11 4 16 8 13 3 -4 12 1 19 11 18 23 17 33 -1 26 -23 -9 -19 26 7 55 l22 26
-24 -22 c-32 -30 -60 -124 -60 -205 0 -63 -2 -68 -21 -68 -16 0 -20 -5 -16
-20 3 -13 -2 -25 -14 -34 -19 -13 -19 -14 6 -30 30 -20 32 -46 4 -72 -17 -15
-19 -26 -14 -60 4 -30 2 -44 -9 -53 -13 -11 -15 4 -15 118 0 94 4 130 12 128
7 -1 10 5 7 13 -2 8 -4 60 -3 115 1 72 7 117 22 162 23 68 26 86 11 63 -7 -10
-10 15 -10 80 0 56 4 90 9 82 17 -28 21 35 5 88 -12 41 -13 59 -5 77 6 13 11
34 11 46 0 56 58 94 118 78z m241 -17 c29 -24 31 -30 31 -91 l0 -66 -51 69
c-64 86 -74 105 -55 98 8 -3 17 -1 21 5 10 17 21 13 54 -15z m-13 -112 c38
-52 54 -83 54 -104 0 -28 -6 -21 -56 58 -31 49 -65 107 -75 129 l-20 40 21
-25 c12 -14 46 -58 76 -98z m-31 -21 c80 -129 100 -178 90 -227 -5 -28 -9 -34
-18 -25 -9 9 -9 14 2 20 18 12 5 44 -62 155 -66 110 -97 172 -96 193 0 21 -6
30 84 -116z m115 69 c0 -33 -4 -60 -10 -60 -6 0 -10 27 -10 60 0 33 4 60 10
60 6 0 10 -27 10 -60z m-191 -22 c8 -18 21 -41 29 -50 9 -11 11 -18 4 -18 -7
0 -23 23 -37 50 -14 28 -22 50 -18 50 5 0 14 -15 22 -32z m37 -160 c-4 -37 10
-61 23 -40 4 7 11 4 19 -8 11 -17 10 -20 -8 -20 -16 0 -19 -5 -15 -25 3 -14 7
-37 10 -51 6 -25 -8 -54 -26 -54 -4 0 -7 34 -7 75 0 41 -3 75 -8 75 -5 -1 -8
-12 -7 -25 1 -14 -2 -25 -7 -25 -6 0 -10 16 -10 36 0 25 3 33 13 28 9 -6 9 -4
-1 8 -10 12 -10 18 -2 23 12 7 10 30 -5 70 -6 16 -3 15 14 -5 16 -19 21 -34
17 -62z m29 52 c9 -16 11 -30 6 -30 -6 0 -17 14 -26 30 -9 17 -11 30 -6 30 6
0 17 -13 26 -30z m-115 -8 c26 -21 19 -68 -12 -78 -25 -8 -28 -4 -32 42 -5 59
5 67 44 36z m244 -21 c3 -22 2 -50 -3 -63 -11 -26 -14 -17 -15 55 -1 57 9 62
18 8z m-296 -23 c5 -67 22 -82 53 -46 10 13 18 26 19 31 0 4 4 7 8 7 13 0 11
-33 -2 -49 -8 -11 -8 -13 2 -7 9 5 12 -3 12 -32 0 -47 -8 -58 -26 -34 -13 16
-13 16 -14 -1 0 -28 -33 -17 -40 13 -5 20 -7 22 -12 8 -4 -9 -4 -26 -1 -38 4
-17 2 -21 -8 -18 -9 3 -14 19 -13 47 1 32 -2 41 -12 37 -14 -5 -12 6 13 62 15
35 19 39 21 20z m228 -56 c-3 -2 1 -11 9 -19 16 -16 20 -33 7 -33 -8 0 -42 63
-42 77 0 3 7 0 15 -7 9 -7 13 -15 11 -18z m-335 -29 c0 -17 1 -17 8 0 5 14 10
6 22 -32 14 -46 14 -51 -2 -73 -15 -19 -20 -21 -31 -10 -10 10 -8 14 10 19 26
6 23 30 -9 75 -22 31 -23 38 -9 38 6 0 10 -8 11 -17z m299 -9 c0 -8 4 -13 8
-10 5 3 14 -12 21 -32 19 -55 40 -84 54 -75 9 5 9 3 1 -8 -9 -11 -8 -29 3 -77
13 -52 14 -67 3 -87 -11 -20 -11 -32 -1 -63 7 -21 11 -49 8 -63 l-4 -24 -2 26
c0 14 -10 43 -22 65 -11 21 -17 30 -14 19 10 -29 28 -365 21 -372 -10 -10 -19
4 -26 44 l-8 38 -1 -32 c0 -18 -5 -33 -11 -33 -12 0 -14 332 -1 375 4 17 5 39
0 50 -7 18 -8 17 -8 -7 -1 -15 -6 -30 -12 -34 -8 -4 -9 1 -4 17 8 27 6 25 -18
-13 -16 -25 -16 -27 -1 -21 14 5 16 2 10 -22 -4 -16 -20 -49 -36 -72 -16 -24
-26 -43 -22 -43 4 0 18 18 32 40 14 22 28 40 31 40 14 0 -6 -47 -38 -89 -18
-24 -33 -49 -33 -55 1 -11 22 11 52 55 16 22 17 22 17 4 1 -19 -44 -95 -55
-95 -3 0 -13 9 -22 21 -17 20 -17 28 -13 187 1 29 3 31 21 20 32 -20 32 -3 0
32 -44 47 -49 76 -16 106 28 26 38 56 11 34 -11 -9 -15 -9 -15 -1 0 13 58 51
79 51 9 0 11 -8 6 -27 -9 -39 -44 -73 -74 -74 -25 -1 -25 -1 4 -10 24 -7 34
-4 52 13 19 17 25 19 38 8 8 -7 15 -19 15 -26 0 -14 39 -94 41 -84 11 70 -6
143 -51 213 -17 27 -28 53 -25 58 4 5 1 9 -4 9 -6 0 -11 9 -11 20 0 11 5 20
10 20 6 0 10 -7 10 -16z m-70 -69 c0 -30 -4 -55 -10 -55 -5 0 -11 8 -11 18 -1
15 -2 15 -6 0 -5 -21 -33 -32 -46 -19 -7 7 -2 14 14 20 l24 10 -23 0 c-12 1
-25 -6 -28 -14 -8 -20 -24 -9 -24 16 0 18 4 20 45 13 42 -6 45 -5 46 17 1 13
1 30 0 37 -1 6 3 12 9 12 6 0 10 -23 10 -55z m240 -75 c0 -24 -4 -30 -21 -30
-15 0 -19 4 -15 16 3 9 6 22 6 30 0 8 7 14 15 14 10 0 15 -10 15 -30z m-577
-2 c7 -23 1 -38 -14 -38 -5 0 -9 14 -9 30 0 35 15 40 23 8z m275 -20 c26 -26
-1 -68 -44 -68 -35 0 -41 26 -14 56 26 27 40 30 58 12z m319 -51 c-5 -18 -57
-22 -57 -5 0 8 5 19 12 26 14 14 51 -3 45 -21z m-589 1 c-2 -13 -10 -23 -18
-23 -8 0 -16 10 -18 23 -3 17 2 22 18 22 16 0 21 -5 18 -22z m240 -45 c-8 -10
-17 -25 -20 -33 -6 -17 16 -43 27 -32 4 4 6 -8 3 -25 -2 -18 -2 -33 2 -33 3 0
6 -9 7 -20 1 -14 -4 -20 -18 -20 -10 0 -19 5 -19 10 0 6 -7 10 -15 10 -8 0
-15 8 -16 18 0 9 -2 38 -5 64 -3 43 -1 48 24 61 38 20 48 20 30 0z m332 -18
c0 -16 -6 -25 -15 -25 -9 0 -15 9 -15 25 0 16 6 25 15 25 9 0 15 -9 15 -25z
m0 -90 c0 -16 -6 -25 -15 -25 -9 0 -15 9 -15 25 0 16 6 25 15 25 9 0 15 -9 15
-25z m-570 -65 c0 -23 -4 -30 -20 -30 -16 0 -20 7 -20 30 0 23 4 30 20 30 16
0 20 -7 20 -30z m588 -2 c-4 -30 -48 -39 -48 -10 0 24 8 32 32 32 14 0 19 -6
16 -22z m-433 -14 c33 -6 41 -11 32 -20 -3 -4 -20 -1 -38 5 -18 6 -45 11 -60
11 -16 0 -29 5 -29 10 0 6 14 8 33 5 17 -3 45 -8 62 -11z m-3 -43 c4 -1 8 -13
10 -28 l4 -28 11 27 c15 34 33 45 33 19 0 -13 6 -18 18 -17 21 4 37 -18 47
-61 5 -24 3 -33 -7 -34 -7 0 -2 -5 12 -11 24 -10 23 -11 -25 -24 -27 -7 -51
-11 -54 -8 -3 2 1 19 7 37 7 19 12 45 12 60 0 27 -13 36 -25 17 -3 -5 -1 -10
4 -10 6 0 11 -5 11 -10 0 -7 -7 -7 -21 1 -20 10 -21 9 -14 -12 4 -13 8 -37 9
-54 1 -24 8 -33 34 -44 23 -11 31 -19 26 -30 -7 -19 -12 -41 -13 -58 -1 -17
-21 -16 -59 3 -19 9 -41 13 -54 8 l-23 -6 21 23 c24 27 48 72 58 109 4 14 -9
-4 -29 -40 -42 -76 -70 -106 -107 -115 -26 -7 -28 -5 -28 25 0 18 7 38 16 44
9 7 19 28 23 46 5 22 13 35 22 34 12 -1 14 10 11 57 -6 85 -3 88 70 80z m234
-83 c-10 -34 -11 -48 -2 -51 7 -3 4 -12 -8 -26 -18 -20 -18 -21 -2 -15 13 5
17 2 14 -12 -4 -28 -15 -32 -59 -24 l-39 7 0 -43 c0 -37 -3 -44 -20 -44 -15 0
-20 7 -20 28 0 41 11 74 24 69 6 -2 18 -1 27 2 14 5 15 12 4 54 -7 27 -9 63
-6 80 7 32 7 32 19 10 17 -32 34 -29 57 10 25 41 31 19 11 -45z m-396 -73 c0
-28 -4 -35 -20 -35 -20 0 -26 22 -14 54 12 30 34 18 34 -19z m591 25 c5 0 9
-11 9 -25 0 -17 -6 -25 -17 -26 -10 0 -25 -2 -34 -4 -12 -2 -15 3 -12 19 9 42
13 48 29 42 9 -3 20 -6 25 -6z m-11 -95 c0 -25 -23 -35 -35 -15 -10 16 2 40
20 40 9 0 15 -9 15 -25z m-100 -7 c5 -13 9 -17 9 -9 1 11 4 11 16 1 23 -19 18
-27 -16 -28 -22 0 -33 5 -40 21 -9 21 -9 21 -6 1 4 -19 0 -21 -42 -20 -25 1
-56 -3 -68 -7 -21 -7 -23 -5 -23 21 0 29 1 30 29 19 23 -8 37 -7 67 5 54 22
63 21 74 -4z m-285 -50 c14 -6 25 -14 25 -18 0 -7 95 4 123 15 25 10 21 -11
-5 -29 -26 -18 -58 -21 -58 -6 0 7 -6 7 -19 0 -23 -12 -74 6 -64 23 3 6 2 8
-3 5 -5 -3 -18 -2 -29 2 -12 4 -29 1 -43 -8 -35 -23 -99 -32 -99 -15 0 8 7 13
16 10 9 -2 23 2 30 10 7 8 19 12 27 9 8 -3 14 -1 14 4 0 14 54 12 85 -2z m262
-15 c8 -21 -3 -26 -21 -8 -9 9 -16 14 -16 10 0 -3 -5 -3 -10 0 -6 4 -8 10 -5
15 7 12 46 0 52 -17z m49 8 c-4 -5 0 -12 6 -14 7 -3 1 -6 -13 -6 -15 -1 -29 6
-33 14 -4 11 2 15 20 15 14 0 23 -4 20 -9z m-330 -21 l27 -11 -23 -24 c-29
-31 -34 -31 -48 -1 -7 17 -7 27 1 35 13 13 10 13 43 1z m239 0 c9 -14 -13 -50
-30 -50 -22 0 -41 40 -24 51 19 12 46 11 54 -1z m104 -49 c28 -28 27 -31 -11
-32 l-33 -2 35 -6 c19 -3 37 -3 38 1 6 14 39 9 53 -8 31 -37 20 -41 -72 -25
-49 8 -85 19 -82 24 4 6 -5 7 -23 2 -16 -4 -114 -9 -219 -11 -110 -2 -201 -8
-217 -15 -15 -6 -36 -8 -45 -4 -17 6 -16 8 4 24 14 12 32 17 50 14 19 -3 24
-2 15 5 -12 8 -12 13 -1 31 22 34 119 26 119 -10 0 -5 -24 -10 -52 -12 -49 -3
-48 -3 16 -5 62 -2 70 0 88 23 17 22 27 25 89 25 52 0 71 -4 75 -15 7 -19 72
-38 104 -32 18 3 14 5 -13 6 l-37 1 17 26 c14 22 22 25 49 21 18 -3 42 -15 53
-26z m70 16 c13 -16 5 -27 -21 -27 -20 0 -21 1 -12 24 7 20 18 20 33 3z m-260
-95 c73 11 181 -2 181 -21 0 -5 14 -12 32 -17 22 -6 -32 -9 -162 -7 -107 2
-202 3 -210 3 -13 0 -13 1 0 10 10 6 11 10 3 10 -7 0 -13 4 -13 9 0 11 83 19
90 9 3 -4 39 -2 79 4z"/>
<path d="M1507 2333 c-4 -3 -7 -19 -7 -34 0 -15 -6 -30 -12 -32 -7 -3 -3 -6 8
-6 18 -1 20 3 16 25 -3 16 -1 25 5 21 5 -3 15 -2 23 4 12 7 9 9 -10 10 -23 0
-23 1 -5 9 15 6 16 9 4 9 -9 1 -19 -2 -22 -6z"/>
<path d="M1450 1752 c0 -7 4 -12 9 -12 5 0 11 -7 13 -15 2 -11 8 -10 28 6 14
12 19 18 13 14 -7 -3 -13 -1 -13 4 0 6 -5 11 -11 11 -6 0 -8 -7 -5 -17 6 -15
4 -15 -14 2 -11 10 -20 13 -20 7z"/>
<path d="M1673 1255 c0 -33 2 -45 4 -27 2 18 2 45 0 60 -2 15 -4 0 -4 -33z"/>
<path d="M1366 1158 c-16 -22 -16 -22 -31 -3 -13 18 -13 15 -1 -27 14 -47 14
-48 -17 -90 -17 -24 -23 -37 -13 -29 20 17 76 96 76 107 0 4 -7 -1 -15 -12
-22 -29 -18 0 6 40 23 39 19 49 -5 14z"/>
<path d="M1443 853 c26 -2 68 -2 95 0 26 2 4 3 -48 3 -52 0 -74 -1 -47 -3z"/>
<path d="M1891 2436 c-15 -18 -4 -46 19 -46 28 0 45 27 30 45 -16 19 -34 19
-49 1z"/>
<path d="M1990 2413 c0 -7 -22 -25 -49 -41 l-50 -28 25 -42 c22 -36 28 -41 45
-32 10 6 19 13 19 16 0 3 -4 3 -9 0 -12 -8 -34 21 -26 34 10 16 65 41 75 35
15 -9 12 1 -10 37 -11 18 -20 27 -20 21z"/>
<path d="M1023 2383 c-17 -6 -16 -38 1 -52 31 -26 63 18 34 47 -13 13 -16 13
-35 5z"/>
<path d="M934 2306 c-19 -30 -15 -65 8 -80 13 -8 24 -5 48 13 18 12 34 21 36
18 9 -9 -8 -35 -29 -45 -12 -6 -16 -11 -9 -11 6 -1 12 -5 12 -11 0 -6 -23 -7
-59 -4 -58 7 -58 6 -74 -25 -13 -25 -13 -31 -2 -31 8 0 32 -17 54 -38 39 -37
40 -37 50 -16 7 15 6 21 -2 20 -13 -1 -17 6 -17 30 0 12 6 15 21 11 15 -4 23
1 32 21 7 15 20 39 30 54 10 15 17 39 15 55 -4 37 -41 43 -73 13 -13 -12 -25
-17 -29 -12 -7 12 20 42 37 42 7 0 6 4 -3 10 -22 14 -28 12 -46 -14z"/>
<path d="M1990 2270 c-62 -62 24 -159 88 -100 29 27 28 65 -3 95 -29 30 -58
32 -85 5z m80 -34 c0 -8 -12 -24 -26 -35 -21 -16 -30 -19 -41 -10 -11 10 -10
16 8 36 25 26 59 31 59 9z"/>
<path d="M2100 2162 c-8 -9 -30 -29 -49 -43 -27 -22 -32 -30 -23 -44 8 -15 23
-19 76 -19 51 -1 65 2 61 12 -3 8 -5 18 -5 23 0 6 -8 6 -19 -1 -11 -5 -32 -10
-47 -10 l-27 0 26 20 c14 11 32 20 40 20 13 0 13 5 4 30 -13 34 -16 35 -37 12z"/>
<path d="M826 2054 c-15 -47 -16 -58 -4 -65 21 -14 32 -10 19 5 -7 8 -8 17 -3
20 12 7 75 -14 84 -28 9 -13 15 -7 23 24 6 23 2 27 -39 38 -49 13 -57 25 -28
41 9 6 12 11 5 11 -6 0 -18 2 -25 5 -10 4 -19 -11 -32 -51z"/>
<path d="M2166 2032 c-5 -8 -24 -10 -63 -6 -50 6 -55 5 -51 -12 2 -13 10 -18
26 -16 20 3 24 -3 21 -35 0 -5 -7 -7 -15 -6 -10 0 -13 -4 -10 -14 4 -9 11 -36
18 -60 6 -25 14 -40 17 -34 4 6 23 14 41 17 l35 7 -39 -41 c-47 -50 -45 -76 6
-61 18 5 47 10 64 11 26 1 30 4 26 24 -4 22 -5 22 -28 7 -34 -22 -41 -9 -12
22 17 18 23 34 20 54 -4 27 -5 28 -30 16 -15 -7 -42 -15 -59 -19 -49 -8 -42
15 15 55 48 34 49 34 37 68 -7 22 -14 30 -19 23z"/>
<path d="M792 1952 c-10 -29 -10 -30 31 -36 23 -4 52 -14 65 -22 17 -11 22
-11 22 -2 0 7 3 24 7 37 4 17 3 22 -5 17 -14 -8 -94 12 -103 26 -4 5 -11 -3
-17 -20z"/>
<path d="M1240 1841 c0 -34 4 -60 8 -57 9 5 7 105 -2 114 -3 3 -6 -23 -6 -57z"/>
<path d="M770 1871 c-15 -28 -12 -67 5 -81 20 -17 61 0 70 29 8 26 25 27 25 2
0 -11 -10 -27 -22 -35 l-22 -16 27 0 c20 0 28 6 33 24 9 36 1 68 -19 80 -16 9
-23 5 -47 -22 -16 -20 -31 -29 -34 -23 -4 6 2 19 13 30 16 16 17 20 4 25 -21
8 -21 8 -33 -13z"/>
<path d="M755 1750 c-3 -6 -10 -33 -14 -60 -7 -44 -6 -50 9 -45 9 3 37 1 63
-4 36 -6 47 -5 47 4 0 8 3 21 7 31 4 12 3 15 -5 10 -16 -9 -102 4 -102 15 0
18 32 22 41 6 8 -13 15 -14 39 -5 17 5 30 14 30 18 0 5 3 16 6 25 6 16 5 16
-26 0 -30 -16 -34 -16 -42 -1 -10 18 -43 22 -53 6z"/>
<path d="M2228 1749 c-9 -5 -38 -10 -63 -11 -34 -2 -44 -6 -40 -16 3 -8 5 -20
5 -28 0 -8 6 -11 15 -8 8 4 37 9 63 13 45 6 47 7 42 33 -4 22 -8 25 -22 17z"/>
<path d="M2230 1658 c-14 -5 -42 -7 -63 -5 -31 4 -37 2 -33 -10 3 -8 6 -32 6
-54 0 -38 21 -62 38 -44 4 4 1 10 -5 12 -7 3 -13 16 -13 29 0 17 6 24 20 24
23 0 26 -10 8 -28 -9 -9 -6 -12 17 -12 23 0 26 3 17 12 -17 17 -15 28 4 28 12
0 15 -7 12 -30 -3 -20 0 -30 8 -30 20 0 23 12 16 66 -7 50 -8 51 -32 42z"/>
<path d="M820 1610 c0 -5 4 -11 9 -15 17 -10 8 -45 -12 -45 -14 0 -18 5 -14
20 4 15 0 20 -13 20 -13 0 -17 -5 -13 -20 4 -14 0 -20 -11 -20 -19 0 -22 46
-3 53 6 3 2 6 -10 6 -21 1 -23 -3 -23 -51 l0 -53 63 0 62 0 3 51 c2 45 0 52
-18 57 -11 3 -20 1 -20 -3z"/>
<path d="M2140 1501 c0 -20 3 -22 12 -13 7 7 28 12 48 12 l35 0 -47 -31 c-31
-20 -48 -39 -48 -51 0 -12 5 -18 13 -15 6 2 36 1 65 -3 49 -6 52 -5 52 15 0
18 -5 21 -30 17 -16 -2 -30 -2 -30 2 0 3 14 12 30 21 22 11 30 23 30 43 0 27
-1 27 -65 27 -62 0 -65 -1 -65 -24z"/>
<path d="M730 1463 c0 -14 4 -21 10 -18 6 4 24 3 41 0 38 -8 26 -25 -19 -28
-29 -2 -32 -5 -32 -34 l0 -31 38 18 c21 10 50 22 65 25 19 5 27 14 27 29 0 18
-11 25 -65 42 l-65 21 0 -24z"/>
<path d="M2134 1354 c-17 -69 45 -112 74 -51 13 27 32 37 32 15 0 -6 -8 -20
-17 -31 -17 -18 -17 -19 7 -16 22 4 25 9 25 49 0 41 -2 45 -27 48 -21 3 -30
-3 -43 -27 -8 -17 -20 -31 -25 -31 -19 0 -10 39 12 54 l22 16 -27 0 c-20 0
-28 -6 -33 -26z"/>
<path d="M849 1351 c-2 -6 -29 -12 -59 -13 -54 -2 -56 -3 -52 -29 4 -26 5 -26
45 -17 23 5 52 7 64 5 20 -4 21 -1 16 27 -7 36 -10 41 -14 27z"/>
<path d="M810 1259 c-25 -5 -51 -7 -59 -4 -9 4 -11 0 -7 -11 3 -8 6 -21 6 -27
0 -8 4 -7 12 1 7 7 21 12 33 12 18 -1 18 -3 -7 -23 -17 -14 -28 -33 -28 -48 0
-31 9 -42 25 -29 6 5 33 11 58 12 41 3 47 6 47 26 0 21 -15 31 -22 13 -1 -5
-19 -12 -38 -16 l-35 -7 38 39 c33 35 50 75 30 72 -5 -1 -28 -5 -53 -10z"/>
<path d="M2120 1233 c0 -27 3 -28 52 -31 29 -1 55 -7 59 -13 3 -6 9 -1 12 13
11 39 8 43 -30 43 -21 0 -50 4 -65 8 -26 7 -28 5 -28 -20z"/>
<path d="M2109 1169 c-5 -11 -9 -34 -7 -52 2 -26 8 -33 30 -35 20 -2 31 4 44
22 9 14 20 26 25 26 17 0 9 -29 -13 -44 l-22 -16 26 0 c27 0 38 16 38 54 0 48
-49 62 -76 21 -9 -14 -20 -25 -25 -25 -17 0 -9 29 11 43 l21 14 -21 6 c-14 3
-24 -1 -31 -14z"/>
<path d="M775 1093 c3 -8 5 -20 5 -26 0 -8 3 -8 9 1 5 9 22 12 47 10 l39 -4
-42 -20 c-27 -12 -41 -24 -38 -32 3 -8 5 -20 5 -28 0 -10 18 -2 55 22 34 23
55 44 55 56 0 22 -8 25 -83 31 -47 3 -57 1 -52 -10z"/>
<path d="M2110 1026 c0 -30 13 -40 41 -31 31 10 21 49 -13 53 -24 3 -28 0 -28
-22z"/>
<path d="M2045 948 c-9 -27 -16 -50 -14 -52 2 -2 25 -9 52 -16 26 -7 47 -17
47 -21 0 -5 3 -9 8 -9 11 0 44 99 37 110 -12 20 -31 9 -30 -17 0 -18 -6 -29
-17 -31 -21 -4 -25 24 -6 30 8 3 4 9 -10 17 -19 10 -23 10 -21 -1 3 -27 -1
-37 -15 -32 -17 6 -11 33 11 50 11 10 10 12 -5 16 -15 4 -23 -5 -37 -44z"/>
<path d="M854 976 c-10 -26 4 -48 28 -44 17 2 23 10 23 28 0 18 -6 26 -23 28
-13 2 -25 -3 -28 -12z"/>
<path d="M910 895 c-7 -8 -10 -26 -8 -40 6 -31 -7 -42 -21 -18 -6 12 -6 25 1
37 9 16 8 18 -6 13 -10 -4 -20 -7 -22 -7 -9 0 -3 -33 12 -61 12 -24 21 -30 42
-27 24 3 27 8 30 46 2 23 7 42 12 42 12 0 22 -34 14 -54 -5 -12 -2 -15 10 -10
20 8 21 43 0 72 -18 25 -46 29 -64 7z"/>
<path d="M1992 824 c-10 -25 -10 -29 5 -38 10 -5 33 -24 51 -42 30 -30 33 -31
42 -13 8 15 7 19 -5 19 -17 0 -19 18 -6 39 7 11 13 12 23 3 11 -9 16 -5 25 18
11 29 11 30 -20 30 -18 0 -48 3 -67 6 -31 5 -36 2 -48 -22z"/>
<path d="M955 781 c-27 -14 -51 -27 -53 -27 -8 -4 43 -94 53 -94 22 0 23 12 3
32 -16 16 -17 22 -7 34 11 13 14 13 22 -3 14 -25 14 -26 27 -18 8 5 8 11 -1
21 -9 11 -9 18 -2 25 13 13 38 -25 28 -41 -3 -6 -1 -10 5 -10 21 0 21 29 0 69
-11 23 -21 40 -23 40 -1 -1 -24 -13 -52 -28z"/>
<path d="M1949 739 c-12 -24 -15 -21 38 -48 23 -11 45 -26 48 -32 5 -6 13 -3
22 11 8 12 13 22 12 24 -102 63 -108 66 -120 45z"/>
<path d="M1026 668 c-21 -15 -45 -28 -52 -28 -22 0 -17 -13 22 -58 38 -45 57
-51 92 -26 29 20 29 65 0 108 l-23 33 -39 -29z m54 -48 c0 -22 -34 -44 -56
-36 -22 8 -17 24 14 40 36 20 42 20 42 -4z"/>
<path d="M1888 632 c-50 -78 -53 -83 -41 -81 11 3 43 -12 43 -20 0 -4 -17 -5
-37 -3 -31 2 -41 -2 -56 -23 -13 -19 -15 -25 -4 -25 7 0 31 -16 52 -36 36 -33
40 -34 52 -18 11 16 9 19 -16 30 -52 22 -48 36 8 33 74 -4 82 12 27 51 -25 19
-46 37 -46 42 0 12 14 10 29 -4 11 -11 12 -10 7 0 -4 7 -5 20 -2 28 5 12 11
11 40 -8 20 -13 37 -30 39 -38 2 -10 9 -4 20 17 19 36 21 47 7 38 -5 -3 -26 5
-47 19 -36 25 -37 25 -13 34 l24 9 -21 11 c-20 11 -25 6 -65 -56z"/>
<path d="M1340 651 c-17 -5 -21 -9 -12 -15 16 -10 16 -83 0 -89 -7 -3 1 -6 17
-6 l30 -1 0 60 c1 33 -2 60 -5 59 -3 -1 -16 -4 -30 -8z"/>
<path d="M1503 653 c-7 -2 -13 -14 -13 -25 0 -17 2 -18 15 -8 11 9 19 10 26 3
13 -13 1 -41 -22 -54 -32 -17 -21 -29 26 -29 34 0 45 4 45 15 0 12 -7 14 -27
9 l-28 -6 23 16 c48 36 10 102 -45 79z"/>
<path d="M1412 620 c-27 -36 -28 -50 -2 -50 11 0 20 -7 20 -15 0 -21 37 -19
42 3 3 9 3 34 0 55 -5 46 -29 49 -60 7z"/>
<path d="M1600 630 c0 -11 -1 -23 -2 -27 -2 -5 6 -8 16 -8 30 0 30 -24 0 -35
-19 -7 -24 -14 -17 -21 7 -7 22 -6 47 5 30 12 37 20 34 38 -2 17 -11 24 -30
26 -38 4 -36 22 2 22 17 0 30 5 30 10 0 6 -18 10 -40 10 -33 0 -40 -3 -40 -20z"/>
<path d="M1118 556 c-10 -13 -31 -30 -47 -37 l-29 -13 31 -43 c17 -24 36 -43
42 -43 24 0 23 13 -2 34 -23 20 -24 23 -9 35 13 11 17 10 23 -7 7 -18 10 -19
27 -6 17 12 18 14 3 14 -18 0 -23 25 -7 35 6 4 16 -7 23 -24 10 -23 16 -28 24
-20 9 9 3 23 -20 55 -18 24 -34 43 -37 43 -3 0 -13 -10 -22 -23z"/>
<path d="M1192 458 c-15 -15 -15 -43 -2 -68 6 -11 6 -21 1 -24 -14 -9 -34 22
-28 45 5 17 3 18 -11 7 -9 -7 -18 -13 -20 -14 -8 -5 21 -45 43 -60 32 -21 70
-3 61 29 -20 73 -20 73 -3 58 10 -7 17 -22 17 -33 0 -17 3 -18 15 -8 20 17 19
23 -11 54 -29 29 -44 32 -62 14z"/>
<path d="M1733 430 c-32 -36 -43 -57 -24 -46 5 3 25 -12 45 -34 20 -22 37 -40
39 -40 2 0 18 18 37 41 30 38 31 42 16 57 -15 15 -16 15 -11 1 3 -8 -3 -23
-13 -32 -17 -16 -20 -16 -32 -2 -11 14 -10 17 9 22 17 4 19 8 10 19 -15 18
-29 18 -29 -1 0 -16 -16 -20 -24 -6 -8 12 29 43 39 34 5 -5 3 0 -4 10 -18 23
-21 22 -58 -23z"/>
<path d="M1660 355 c-18 -19 -20 -25 -8 -25 9 0 28 -17 44 -37 15 -21 29 -40
31 -42 1 -2 12 4 24 15 l21 19 -23 18 c-13 10 -33 31 -44 47 l-22 30 -23 -25z"/>
<path d="M1254 336 c-10 -26 4 -48 28 -44 17 2 23 10 23 28 0 18 -6 26 -23 28
-13 2 -25 -3 -28 -12z"/>
<path d="M1339 294 c-11 -14 -10 -21 4 -46 19 -33 14 -56 -9 -37 -8 6 -14 23
-14 37 l0 26 -16 -22 c-15 -22 -15 -25 7 -48 26 -28 76 -33 86 -8 3 9 -2 32
-11 51 -15 32 -15 34 1 31 9 -2 20 -14 23 -27 5 -22 6 -23 20 -6 13 15 11 20
-13 41 -33 28 -59 31 -78 8z"/>
<path d="M1574 275 c-23 -20 -33 -34 -24 -35 17 0 70 -62 70 -81 0 -7 11 -3
24 10 l24 23 -37 33 c-27 26 -33 37 -24 45 15 16 33 4 33 -21 0 -25 16 -24 30
1 15 27 -4 60 -34 60 -12 0 -40 -16 -62 -35z"/>
<path d="M1454 232 c-1 -16 -8 -44 -17 -62 -21 -41 -21 -37 7 -37 18 0 22 4
19 18 -4 15 0 19 22 19 21 0 25 -4 21 -18 -5 -15 -1 -19 24 -19 18 0 29 5 27
11 -3 6 -13 35 -23 64 -17 47 -21 52 -49 52 -26 0 -30 -4 -31 -28z"/>
</g>
</svg>
