<?xml version="1.0" standalone="no"?>
<!DOCTYPE svg PUBLIC "-//W3C//DTD SVG 20010904//EN"
 "http://www.w3.org/TR/2001/REC-SVG-20010904/DTD/svg10.dtd">
<svg version="1.0" xmlns="http://www.w3.org/2000/svg"
 width="300.000000pt" height="298.000000pt" viewBox="0 0 300.000000 298.000000"
 preserveAspectRatio="xMidYMid meet">
<metadata>
Created by potrace 1.10, written by Peter Selinger 2001-2011
</metadata>
<g transform="translate(0.000000,298.000000) scale(0.100000,-0.100000)"
fill="#000000" stroke="none">
<path d="M1366 2948 c-639 -61 -1161 -533 -1302 -1178 -27 -121 -27 -457 0
-580 128 -594 579 -1041 1163 -1157 121 -23 462 -23 578 2 461 96 848 403
1044 827 49 106 85 212 108 319 26 121 26 477 0 599 -40 184 -118 368 -226
530 -74 113 -269 308 -386 387 -289 195 -637 284 -979 251z m364 -77 c583 -96
1036 -528 1161 -1105 25 -116 35 -333 20 -451 -76 -613 -519 -1091 -1131
-1222 -120 -25 -420 -26 -540 0 -282 60 -518 186 -716 382 -161 160 -264 318
-337 515 -82 222 -107 489 -68 718 93 545 477 975 1006 1127 69 20 133 33 245
49 75 11 256 4 360 -13z"/>
<path d="M1340 2845 c0 -3 4 -15 10 -25 8 -15 6 -17 -11 -13 -18 5 -19 2 -13
-23 4 -16 7 -31 6 -34 0 -21 -4 -29 -16 -33 -11 -4 -13 4 -10 38 2 24 0 47 -6
50 -13 8 -97 -71 -87 -81 4 -4 13 -1 20 7 6 8 20 21 30 28 14 12 17 11 17 -3
0 -9 -18 -29 -40 -44 -44 -30 -54 -58 -17 -47 12 4 26 11 32 16 18 17 23 9 12
-21 -13 -33 -4 -49 17 -31 11 9 15 9 19 -1 2 -7 7 -10 11 -6 4 3 3 16 -4 27
-7 15 -8 27 -1 39 10 16 10 15 11 -3 1 -18 3 -17 23 8 13 15 25 27 29 27 3 0
8 -30 11 -66 2 -36 10 -71 17 -77 10 -10 11 2 6 55 -4 37 -9 75 -12 83 -4 10
0 15 11 15 9 0 15 6 12 13 -2 6 -9 11 -16 10 -10 -3 -18 18 -23 67 -2 14 -10
26 -20 28 -10 2 -18 1 -18 -3z m25 -75 c6 -20 -12 -56 -23 -45 -3 2 1 11 7 19
8 10 9 16 1 21 -13 8 -13 25 -1 25 5 0 13 -9 16 -20z"/>
<path d="M1690 2809 c0 -38 -19 -59 -53 -59 -18 0 -39 -4 -47 -10 -11 -7 -9
-11 13 -19 15 -6 34 -8 42 -5 27 11 16 -13 -20 -40 -19 -15 -35 -30 -35 -34 0
-7 38 -25 76 -36 12 -4 33 -2 47 3 22 8 27 7 32 -9 7 -21 61 -44 70 -29 4 5
-10 18 -29 30 -41 24 -40 20 -25 53 9 19 9 29 0 40 -10 11 -8 17 8 28 24 17
34 98 14 105 -9 3 -13 -5 -13 -24 0 -33 -16 -53 -41 -53 -9 0 -19 -7 -23 -15
-3 -8 -11 -15 -18 -14 -10 0 -10 2 0 6 6 2 12 11 12 19 0 8 5 23 12 33 12 20
5 51 -12 51 -5 0 -10 -9 -10 -21z m41 -102 c-16 -16 -14 -40 4 -33 8 3 15 2
15 -3 0 -19 -14 -18 -42 2 l-29 21 23 17 c24 18 48 15 29 -4z m-27 -46 c23
-25 14 -40 -24 -39 -17 1 -30 2 -30 4 0 13 21 54 28 54 5 0 17 -9 26 -19z"/>
<path d="M947 2734 c-3 -3 -1 -17 6 -31 10 -22 7 -28 -33 -64 -39 -36 -42 -41
-28 -55 14 -14 18 -12 45 28 16 23 33 44 38 44 6 1 25 7 43 15 40 17 44 44 5
36 -19 -4 -34 1 -49 14 -11 11 -23 16 -27 13z"/>
<path d="M2085 2684 c-15 -23 -21 -26 -56 -20 -41 7 -50 -3 -23 -24 13 -12 12
-16 -11 -34 -18 -15 -24 -27 -20 -39 10 -24 30 -21 48 6 12 17 18 19 28 10 10
-10 10 -20 -1 -53 -15 -44 -8 -60 18 -44 23 15 27 60 8 89 -21 32 -20 34 5 28
30 -8 46 17 41 66 -5 48 -13 51 -37 15z"/>
<path d="M995 2640 c-4 -6 -10 -8 -15 -5 -16 10 -22 -36 -7 -53 9 -11 13 -29
10 -48 -4 -22 0 -33 11 -37 12 -5 16 0 17 21 0 27 1 27 11 5 6 -13 15 -23 20
-23 11 0 10 17 -2 25 -5 3 -10 16 -9 28 l0 22 16 -22 c16 -23 43 -31 43 -13 0
9 -3 13 -48 49 -19 16 -20 20 -7 31 8 7 15 16 15 21 0 12 -47 11 -55 -1z"/>
<path d="M1338 2555 c-146 -23 -304 -86 -438 -174 -81 -53 -221 -191 -280
-277 -73 -105 -134 -241 -166 -369 -24 -95 -28 -129 -27 -255 0 -152 17 -254
64 -380 186 -499 719 -793 1240 -685 105 22 162 41 261 90 121 60 201 120 305
229 140 146 222 294 276 500 28 110 31 364 4 475 -54 225 -147 392 -305 547
-246 243 -588 352 -934 299z m353 -31 c506 -87 879 -530 879 -1044 0 -283
-101 -529 -303 -737 -139 -143 -303 -239 -495 -290 -83 -22 -120 -26 -252 -27
-169 -1 -234 10 -381 64 -465 169 -757 671 -674 1156 42 241 149 443 325 608
242 228 571 326 901 270z"/>
<path d="M826 2165 c-22 -7 -48 -22 -58 -33 -19 -19 -19 -22 6 -197 14 -97 26
-179 26 -181 0 -2 27 -4 60 -4 l60 0 0 -30 0 -30 -55 6 -55 7 0 -39 c0 -103
40 -565 50 -584 14 -25 72 -52 94 -44 11 4 16 0 16 -15 0 -18 -6 -21 -45 -21
l-45 0 0 -68 c0 -78 16 -109 58 -114 27 -3 27 -3 30 -95 2 -56 7 -95 15 -101
7 -6 76 -12 155 -13 l144 -3 -2 197 -1 197 25 25 c25 25 27 25 206 25 180 0
181 0 206 -25 l25 -25 -2 -197 -1 -197 143 3 c83 1 149 7 156 13 9 7 13 40 13
104 l0 94 29 0 c44 0 61 31 61 112 l0 68 -45 0 c-38 0 -45 3 -45 20 0 16 7 20
35 20 24 0 44 8 59 23 21 21 24 38 35 168 25 315 31 402 31 436 l0 36 -55 -7
-55 -6 0 30 0 30 60 0 c33 0 60 4 60 9 0 5 11 87 26 183 l25 173 -26 22 c-70
61 -209 50 -247 -21 -6 -11 -16 -59 -22 -106 l-12 -85 -454 0 -454 0 -14 89
c-15 101 -31 129 -85 151 -46 18 -80 19 -131 0z m34 -33 c0 -4 -7 -18 -16 -31
-31 -44 4 -197 48 -209 24 -6 23 -19 -2 -34 -12 -8 -20 -24 -20 -40 0 -18 -5
-28 -14 -28 -18 0 -27 13 -32 48 -23 156 -33 219 -38 232 -6 17 9 39 39 57 24
14 35 16 35 5z m1220 0 c0 -4 -6 -14 -12 -20 -7 -7 -13 -18 -13 -25 0 -7 -6
-36 -14 -66 -9 -37 -16 -49 -22 -40 -6 10 -9 6 -9 -14 0 -17 10 -38 26 -54 14
-14 23 -27 20 -30 -6 -6 -106 -10 -111 -4 -3 2 6 12 20 23 17 14 28 39 41 96
9 42 22 84 29 92 6 8 15 23 18 33 6 17 27 24 27 9z m-1108 -19 c10 -9 18 -27
18 -40 0 -13 4 -22 9 -19 5 3 11 -14 13 -39 2 -33 0 -45 -11 -45 -10 0 -12 9
-8 35 3 21 2 33 -4 30 -5 -4 -9 3 -9 15 0 12 -4 18 -10 15 -6 -4 -10 -3 -9 2
3 18 -2 32 -17 47 -21 22 4 21 28 -1z m1249 -2 c14 -12 15 -21 4 -85 -7 -39
-18 -104 -24 -145 -12 -74 -25 -106 -42 -95 -5 3 -9 17 -9 32 0 16 -10 35 -27
49 -20 18 -22 23 -9 23 29 0 50 37 66 121 13 66 14 82 3 86 -7 3 -13 12 -13
20 0 16 28 14 51 -6z m-65 -45 c-4 -17 -9 -57 -13 -88 l-6 -58 -48 0 -48 0 14
33 c7 17 16 54 20 80 9 58 25 76 60 69 24 -4 26 -8 21 -36z m-1226 32 c0 -10
31 -149 36 -162 5 -13 -2 -16 -39 -16 l-44 0 -7 53 c-3 28 -9 69 -12 90 l-7
37 37 0 c20 0 36 -1 36 -2z m94 -151 c4 4 4 0 1 -9 -4 -11 1 -20 14 -28 34
-18 27 -40 -11 -36 -18 2 -46 5 -63 6 -18 1 -24 4 -15 7 21 9 39 35 40 57 0
14 3 16 13 7 8 -6 17 -8 21 -4z m1096 -112 c0 -3 0 -12 0 -20 0 -11 -12 -15
-45 -15 l-45 0 0 -52 0 -53 -520 0 -520 0 0 21 c0 12 -3 36 -6 53 -6 28 -10
31 -44 31 -29 0 -39 5 -43 19 -3 11 -3 21 -2 23 6 5 1225 -1 1225 -7z m-1239
-196 c-5 -19 -2 -100 5 -121 2 -9 0 -19 -6 -23 -7 -4 -8 -11 -1 -18 8 -11 16
-90 11 -109 -6 -20 -6 -34 1 -43 4 -5 7 -34 7 -62 1 -71 35 -141 72 -149 3 0
17 -4 31 -8 14 -4 34 -9 45 -11 10 -2 21 -4 23 -4 2 -1 -3 -9 -11 -18 -22 -25
-15 -366 7 -400 20 -30 19 -33 -9 -33 -42 0 -56 24 -56 100 0 51 -4 73 -16 82
-51 41 -64 59 -64 87 0 38 9 61 24 61 7 0 23 11 36 25 l23 25 -22 24 c-12 13
-35 26 -50 29 -15 3 -32 16 -38 29 -12 26 -30 203 -39 388 -3 68 -8 128 -11
133 -7 11 18 39 31 34 6 -3 9 -11 7 -18z m1286 6 c5 -8 5 -56 0 -107 -4 -51
-9 -121 -11 -155 -2 -34 -6 -66 -10 -71 -3 -5 -6 -52 -7 -105 -1 -53 -6 -102
-10 -109 -4 -7 -27 -22 -50 -33 -59 -28 -69 -48 -38 -74 13 -11 32 -20 42 -21
14 0 17 -9 17 -49 0 -45 -3 -52 -32 -72 -46 -32 -48 -36 -47 -108 1 -69 -9
-87 -53 -95 -35 -6 -40 2 -17 25 11 11 19 33 19 52 4 268 2 351 -8 355 -23 7
-12 22 17 22 41 0 98 26 116 53 9 14 17 54 19 96 2 39 9 78 16 85 8 11 8 16 0
21 -7 5 -10 23 -6 49 3 22 8 89 12 149 7 103 14 124 31 92z m-62 -39 c-3 -22
-10 -129 -15 -236 -10 -173 -13 -197 -31 -215 -19 -19 -33 -20 -549 -20 -517
0 -530 0 -550 20 -17 18 -21 41 -30 190 -5 94 -13 200 -16 237 l-6 68 601 -1
600 -1 -4 -42z m-797 -539 c-24 -18 -44 -43 -46 -55 -4 -27 -22 -29 -22 -2 0
33 0 34 -21 56 -10 11 -16 24 -12 27 3 4 37 7 75 7 l70 0 -44 -33z m492 21 c0
-23 -21 -88 -28 -88 -4 1 -16 15 -27 33 -11 17 -30 36 -42 43 -33 16 -18 24
44 24 36 0 53 -4 53 -12z m-600 -210 l0 -193 -60 3 -60 4 0 189 0 189 60 0 60
0 0 -192z m740 2 l0 -190 -44 0 c-24 0 -51 -3 -60 -6 -14 -5 -16 15 -16 190
l0 196 60 0 60 0 0 -190z m-697 -214 c-3 -13 -11 -23 -19 -22 -25 4 -29 17
-10 32 28 20 34 18 29 -10z m567 5 c13 -26 13 -31 -4 -31 -18 0 -39 27 -31 40
10 16 23 12 35 -9z"/>
<path d="M1010 1775 l0 -25 495 0 495 0 0 25 0 25 -495 0 -495 0 0 -25z"/>
<path d="M1045 1601 c-3 -6 0 -13 7 -15 93 -27 120 -55 82 -83 -26 -19 -34
-16 -34 12 0 30 -19 40 -87 49 -44 6 -53 4 -53 -9 0 -10 10 -15 33 -15 51 0
77 -11 77 -31 0 -16 -8 -19 -55 -19 -90 0 -67 -25 30 -33 l40 -3 -30 -13 c-36
-15 -85 -60 -85 -78 0 -20 9 -16 44 22 19 19 38 35 45 35 22 0 10 -36 -24 -69
-43 -42 -74 -140 -37 -117 5 3 12 19 15 35 3 16 17 42 31 57 l25 29 1 -82 c0
-67 3 -83 15 -83 12 0 15 16 15 83 l1 82 25 -30 c14 -16 27 -42 31 -57 6 -33
23 -37 23 -8 0 30 -25 75 -55 98 -23 19 -35 62 -17 62 5 0 27 -16 50 -36 28
-23 42 -30 42 -21 0 18 -65 77 -85 77 -26 0 -16 28 12 35 38 9 53 23 53 50 0
23 -51 75 -73 75 -7 0 -22 3 -33 6 -12 3 -25 1 -29 -5z"/>
<path d="M1317 1596 c-3 -7 -26 -16 -52 -18 -60 -7 -68 -16 -54 -57 12 -33 7
-201 -7 -283 -10 -58 13 -47 25 12 6 28 11 91 11 140 0 84 11 116 23 70 4 -17
14 -20 71 -20 55 0 68 3 78 20 22 34 28 22 28 -55 0 -104 25 -213 44 -194 3 2
-2 40 -11 84 -10 52 -13 112 -10 173 4 92 4 94 -20 103 -13 5 -38 9 -54 9 -17
0 -32 6 -35 15 -8 19 -30 20 -37 1z m86 -37 c30 -8 37 -15 37 -34 0 -14 -4
-25 -10 -25 -5 0 -10 9 -10 20 0 25 -55 36 -119 24 -35 -7 -46 -13 -45 -26 2
-23 -12 -23 -20 -1 -9 21 4 33 46 43 48 11 78 11 121 -1z m-73 -44 c0 -9 -9
-15 -25 -15 -16 0 -25 6 -25 15 0 9 9 15 25 15 16 0 25 -6 25 -15z m70 0 c0
-9 -9 -15 -25 -15 -16 0 -25 6 -25 15 0 9 9 15 25 15 16 0 25 -6 25 -15z m-70
-44 c0 -19 -22 -23 -38 -7 -15 15 -14 16 11 16 15 0 27 -4 27 -9z"/>
<path d="M1496 1503 c4 -54 11 -104 16 -110 6 -7 26 -13 45 -13 38 0 42 -23 5
-28 -12 -2 -29 -13 -37 -25 -17 -24 -21 -127 -5 -127 6 0 10 18 10 39 0 53 16
91 37 91 16 0 18 -8 15 -71 -3 -56 -1 -70 10 -67 10 4 13 30 13 104 l0 99 -30
3 c-50 6 -55 17 -55 113 0 73 -3 89 -15 89 -13 0 -14 -15 -9 -97z"/>
<path d="M1550 1581 c-5 -11 -10 -43 -10 -71 0 -79 10 -90 81 -90 56 0 60 2
70 28 14 34 5 132 -13 143 -7 5 -36 9 -65 9 -42 0 -54 -4 -63 -19z m104 -7 c9
-3 16 -12 16 -19 0 -10 -15 -14 -50 -13 -35 0 -50 4 -50 13 0 21 49 32 84 19z
m16 -64 c0 -5 -25 -10 -55 -10 -30 0 -55 5 -55 10 0 6 25 10 55 10 30 0 55 -4
55 -10z m-2 -47 c-3 -14 -13 -18 -48 -18 -35 0 -45 4 -48 18 -3 14 4 17 48 17
44 0 51 -3 48 -17z"/>
<path d="M1720 1507 c0 -103 -2 -107 -61 -107 l-30 0 3 -102 c3 -114 23 -141
23 -33 1 36 4 65 8 65 4 0 11 0 16 0 13 0 31 -57 31 -96 0 -19 5 -34 10 -34
13 0 13 81 0 115 -6 15 -22 30 -40 36 -40 14 -38 29 4 29 18 0 38 6 44 13 16
19 20 199 5 204 -10 4 -13 -19 -13 -90z"/>
<path d="M1930 1575 c0 -23 4 -25 46 -25 41 0 45 -2 42 -22 -2 -19 -10 -24
-40 -26 l-38 -3 1 -107 c1 -96 13 -223 19 -197 1 6 1 72 0 147 l-2 137 39 3
c37 3 38 4 38 43 0 40 0 40 -42 43 -29 2 -43 8 -43 18 0 8 -4 14 -10 14 -5 0
-10 -11 -10 -25z"/>
<path d="M1770 1580 c0 -6 28 -10 64 -10 36 0 68 5 71 10 4 6 -20 10 -64 10
-41 0 -71 -4 -71 -10z"/>
<path d="M1764 1541 c-10 -11 -2 -21 16 -21 13 0 20 -7 20 -18 0 -11 9 -27 20
-37 22 -20 27 -49 8 -43 -7 3 -22 19 -33 36 -23 37 -39 42 -29 10 9 -32 24
-48 54 -61 24 -11 23 -12 -18 -15 -28 -2 -42 -7 -39 -15 2 -7 18 -11 40 -9 39
4 51 -12 18 -23 -26 -8 -48 -44 -57 -90 -5 -30 -4 -37 7 -33 8 2 15 17 17 33
4 31 29 75 43 75 5 0 9 -31 9 -70 0 -40 4 -70 10 -70 6 0 10 31 10 73 l1 72
19 -23 c11 -13 22 -39 26 -58 7 -37 24 -47 24 -14 0 33 -27 88 -49 102 -30 19
-26 28 14 28 19 0 35 5 35 10 0 6 -16 10 -35 10 -19 0 -35 5 -35 10 0 6 6 10
14 10 8 0 22 10 30 22 18 25 21 58 6 58 -5 0 -10 -8 -10 -18 0 -20 -33 -56
-42 -46 -12 11 37 94 55 94 10 0 17 5 15 12 -4 11 -154 19 -164 9z m106 -29
c0 -5 -6 -16 -13 -27 -16 -21 -37 -12 -37 16 0 14 7 19 25 19 14 0 25 -4 25
-8z"/>
<path d="M1980 1402 c0 -81 15 -161 35 -188 21 -30 26 -12 9 36 -16 46 -34
167 -26 175 2 2 12 -5 22 -17 10 -12 19 -17 23 -11 3 5 -9 25 -28 43 l-35 34
0 -72z"/>
<path d="M1290 1421 c-22 -6 -25 -13 -28 -59 -2 -40 1 -54 12 -58 21 -8 20
-39 -1 -75 -9 -15 -14 -31 -10 -35 13 -13 37 19 48 62 10 37 15 44 35 44 15 0
24 -6 24 -15 0 -28 32 -95 46 -95 16 0 18 11 5 25 -4 6 -13 26 -20 45 -9 28
-9 35 4 42 10 6 15 25 15 59 0 44 -3 51 -26 59 -28 11 -67 11 -104 1z m110
-21 c0 -6 -27 -10 -61 -10 -37 0 -58 4 -54 10 3 6 31 10 61 10 30 0 54 -4 54
-10z m-12 -30 c6 0 12 -4 12 -10 0 -6 -27 -10 -60 -10 -33 0 -60 4 -60 9 0 11
46 20 75 15 11 -2 26 -4 33 -4z m12 -40 c0 -5 -25 -10 -55 -10 -30 0 -55 5
-55 10 0 6 25 10 55 10 30 0 55 -4 55 -10z"/>
<path d="M677 2543 c-4 -4 4 -19 18 -33 25 -26 25 -27 11 -81 -8 -30 -15 -47
-15 -39 -1 24 -51 72 -68 66 -8 -3 -19 -6 -24 -6 -18 0 -9 -17 16 -30 25 -13
35 -40 15 -40 -5 0 -10 -4 -10 -10 0 -5 11 -10 25 -10 19 0 28 -8 40 -36 23
-56 39 -39 36 39 -3 76 12 94 48 58 16 -16 19 -26 11 -45 -17 -47 5 -34 37 21
26 43 29 55 17 60 -8 3 -21 0 -29 -7 -20 -17 -35 -4 -35 31 0 16 -5 29 -11 29
-6 0 -22 9 -36 20 -28 21 -36 24 -46 13z"/>
<path d="M2366 2498 c-12 -16 -13 -25 -5 -33 8 -7 13 -6 16 3 8 21 32 14 26
-8 -3 -11 -8 -20 -11 -20 -13 0 -78 26 -83 33 -8 11 -55 -2 -69 -19 -19 -22
-2 -36 23 -19 24 17 63 20 71 6 3 -5 -3 -11 -14 -14 -11 -3 -20 -10 -20 -16 0
-7 10 -9 25 -5 20 5 24 3 19 -10 -8 -20 -12 -20 -51 4 -33 20 -33 20 -33 0 0
-12 7 -23 15 -25 52 -17 50 -14 32 -32 -14 -15 -20 -15 -42 -3 -32 17 -39 10
-19 -18 19 -28 34 -28 69 -1 20 17 29 19 35 9 11 -18 23 5 15 30 -8 25 22 28
39 4 7 -9 18 -12 29 -9 13 6 14 11 6 26 -5 11 -14 17 -19 14 -5 -3 -24 2 -42
12 -26 13 -29 18 -15 21 10 2 27 -4 38 -14 11 -10 19 -12 19 -6 0 7 10 11 22
9 32 -3 39 42 9 50 -12 3 -21 9 -21 14 0 5 -7 9 -15 9 -9 0 -12 6 -9 15 9 24
-23 18 -40 -7z"/>
<path d="M410 2190 c-32 -32 -25 -56 25 -90 40 -28 65 -32 65 -12 0 4 -18 17
-40 30 -41 23 -52 48 -26 58 8 3 31 -6 52 -20 35 -24 54 -26 54 -6 0 11 -81
60 -98 60 -7 0 -21 -9 -32 -20z"/>
<path d="M2556 2197 c-15 -11 -17 -17 -7 -35 15 -28 35 -29 26 -1 -8 25 13 22
29 -4 16 -25 -5 -52 -40 -52 -23 0 -30 5 -32 25 -5 35 -19 46 -27 21 -7 -24
16 -68 41 -78 9 -3 31 1 50 10 44 21 54 59 27 95 -24 32 -42 37 -67 19z"/>
<path d="M354 2099 c-8 -13 -7 -14 36 -32 l35 -15 -52 -7 c-29 -4 -53 -13 -53
-19 0 -14 105 -68 114 -59 13 13 5 22 -30 33 -48 16 -33 27 39 29 15 1 27 7
27 14 0 18 -107 70 -116 56z"/>
<path d="M2606 2068 c-41 -21 -55 -33 -48 -40 7 -7 21 -4 46 12 43 26 45 19
10 -27 -41 -54 -26 -67 41 -35 30 15 55 32 55 39 0 17 -12 16 -36 -2 -36 -27
-48 -17 -20 19 48 63 32 75 -48 34z"/>
<path d="M296 1982 c-11 -11 -6 -21 16 -28 12 -3 37 -14 57 -23 l36 -16 -70
-5 c-52 -4 -70 -9 -72 -20 -3 -21 95 -96 109 -82 7 7 -3 19 -33 39 l-43 28 51
3 c50 3 61 12 67 55 1 11 -110 57 -118 49z"/>
<path d="M2658 1958 c-27 -11 -48 -27 -48 -34 0 -17 0 -17 36 0 16 8 41 19 57
25 27 11 38 32 15 30 -7 0 -34 -10 -60 -21z"/>
<path d="M2670 1913 c-54 -19 -56 -21 -44 -33 7 -7 26 -5 57 7 48 18 68 13 48
-11 -8 -10 -9 -16 -1 -21 27 -16 43 38 18 63 -15 15 -22 14 -78 -5z"/>
<path d="M2758 1845 c-3 -4 -27 -11 -54 -18 -42 -11 -74 -37 -44 -37 34 0 120
33 120 46 0 14 -12 19 -22 9z"/>
<path d="M230 1772 c-6 -24 -9 -47 -6 -49 10 -10 26 9 26 31 0 28 8 36 26 29
11 -4 13 -15 8 -39 -8 -43 12 -46 21 -4 4 17 13 30 22 30 8 0 13 -6 10 -12
-15 -41 -17 -57 -7 -63 12 -7 30 35 30 69 0 20 -8 26 -59 38 l-59 15 -12 -45z"/>
<path d="M2772 1763 c2 -29 -1 -38 -14 -41 -14 -3 -18 3 -18 27 0 22 -5 31
-16 31 -11 0 -14 -6 -9 -22 11 -36 11 -40 -3 -45 -7 -3 -15 7 -18 26 -4 17
-10 34 -15 36 -15 10 -18 -11 -7 -54 9 -36 14 -42 32 -37 12 3 38 9 59 12 20
4 39 10 42 13 7 12 -17 91 -27 91 -5 0 -8 -17 -6 -37z"/>
<path d="M210 1675 c0 -9 9 -15 25 -15 34 0 32 -16 -5 -35 -16 -9 -30 -22 -30
-30 0 -19 5 -19 35 1 23 15 25 15 31 0 3 -9 17 -16 30 -16 26 0 44 31 44 74 0
20 -6 24 -46 30 -69 9 -84 8 -84 -9z m98 -40 c-2 -14 -7 -26 -13 -26 -5 0 -11
12 -13 26 -2 18 1 25 13 25 12 0 15 -7 13 -25z"/>
<path d="M2755 1670 c-4 -6 -11 -8 -16 -5 -5 4 -18 3 -29 0 -16 -5 -20 -15
-20 -50 0 -24 3 -45 8 -48 4 -2 35 1 69 6 l61 9 -5 36 c-3 20 -10 43 -16 50
-11 15 -43 16 -52 2z m39 -26 c11 -29 6 -44 -14 -44 -14 0 -20 7 -20 23 0 37
23 51 34 21z m-54 -30 c0 -31 -23 -28 -28 4 -2 15 2 22 12 22 11 0 16 -9 16
-26z"/>
<path d="M212 1552 c-25 -25 -28 -50 -9 -76 18 -25 48 -17 67 19 8 17 16 32
18 34 1 3 7 0 14 -7 8 -8 8 -15 -1 -26 -20 -23 -9 -42 12 -22 20 21 22 46 4
70 -19 25 -50 13 -64 -24 -6 -16 -16 -30 -22 -30 -14 0 -14 33 0 47 6 6 9 17
7 24 -3 9 -11 6 -26 -9z"/>
<path d="M2700 1495 c0 -8 12 -21 27 -29 l28 -14 -28 -13 c-15 -7 -27 -18 -27
-26 0 -18 10 -16 45 7 17 11 42 20 58 20 17 0 27 5 27 15 0 10 -10 15 -32 15
-18 0 -44 9 -58 20 -30 24 -40 25 -40 5z"/>
<path d="M197 1433 c-18 -17 -1 -23 63 -23 56 0 70 3 70 15 0 12 -14 15 -63
15 -35 0 -67 -3 -70 -7z"/>
<path d="M305 1380 c5 -16 2 -20 -18 -20 -45 0 -87 -12 -87 -26 0 -9 13 -11
54 -7 49 5 53 4 59 -18 5 -18 0 -29 -21 -46 -15 -12 -37 -22 -49 -23 -16 0
-23 -6 -23 -19 0 -17 5 -19 33 -14 21 3 46 -1 65 -11 38 -20 42 -20 42 0 0 8
-14 20 -32 26 l-31 11 21 17 c19 16 21 24 15 84 -4 47 -10 66 -20 66 -10 0
-12 -6 -8 -20z"/>
<path d="M2706 1374 c-39 -39 -5 -104 54 -104 33 0 47 10 58 40 12 32 -1 66
-28 75 -26 8 -26 8 -35 -28 -6 -21 -4 -27 9 -27 9 0 16 7 16 16 0 8 5 12 10 9
17 -11 11 -44 -11 -55 -16 -9 -26 -8 -45 5 -28 18 -30 28 -9 49 17 16 20 36 6
36 -5 0 -17 -7 -25 -16z"/>
<path d="M2693 1245 c-26 -18 -32 -75 -10 -94 29 -23 74 -24 96 -2 24 24 28
73 8 90 -25 20 -71 23 -94 6z m81 -37 c16 -26 -14 -53 -49 -44 -31 8 -42 31
-24 52 16 19 59 14 73 -8z"/>
<path d="M2745 1080 c-4 -16 -8 -30 -10 -30 -2 0 -24 9 -49 20 -29 12 -48 15
-52 9 -9 -15 -1 -20 58 -41 64 -22 57 -22 67 5 21 57 22 67 7 67 -8 0 -17 -13
-21 -30z"/>
<path d="M302 1050 c-12 -12 -22 -32 -22 -45 0 -26 35 -65 57 -65 23 0 70 28
77 45 24 65 -60 113 -112 65z m86 -37 c4 -26 -35 -50 -62 -40 -19 8 -21 53 -3
61 28 12 62 1 65 -21z"/>
<path d="M2610 1010 c-40 -40 -16 -93 47 -106 25 -5 34 -1 52 21 27 36 27 50
-4 80 -29 30 -68 32 -95 5z m80 -25 c20 -24 8 -50 -24 -50 -32 0 -53 23 -43
49 8 20 50 21 67 1z"/>
<path d="M372 928 c-35 -20 -50 -34 -44 -40 6 -6 18 -6 32 2 18 10 24 9 31 -1
5 -8 9 -17 9 -21 0 -9 30 -11 30 -3 0 3 -6 14 -12 25 -9 15 -10 22 -1 31 8 8
15 3 28 -21 11 -21 20 -29 26 -23 10 10 -26 84 -39 82 -4 -1 -31 -15 -60 -31z"/>
<path d="M2560 910 c0 -5 15 -17 33 -27 l32 -18 -49 -5 c-27 -3 -51 -9 -53
-15 -3 -9 79 -61 102 -65 25 -4 13 22 -14 31 -44 16 -38 27 16 31 50 3 68 22
31 33 -13 4 -35 16 -50 26 -29 21 -48 24 -48 9z"/>
<path d="M2496 811 c-4 -5 3 -16 15 -24 18 -13 19 -18 9 -37 -11 -21 -12 -21
-31 -4 -15 14 -22 15 -32 5 -9 -10 -9 -14 3 -21 8 -5 30 -20 49 -34 35 -26 61
-33 61 -17 0 5 -10 15 -21 23 -19 12 -20 17 -10 37 12 21 14 21 30 7 21 -19
41 -21 41 -3 -1 6 -22 26 -47 42 -59 38 -60 38 -67 26z"/>
<path d="M504 755 c-4 -9 -1 -29 6 -46 14 -33 9 -45 -16 -35 -10 4 -14 13 -11
25 2 10 1 25 -4 32 -8 12 -11 11 -19 -1 -14 -22 -12 -34 11 -64 24 -31 40 -33
63 -7 14 15 15 24 7 40 -6 11 -11 27 -11 37 0 13 3 14 15 4 8 -7 15 -21 15
-31 0 -23 16 -25 24 -3 10 25 -20 64 -50 64 -13 0 -27 -7 -30 -15z"/>
<path d="M2407 692 c-24 -27 -21 -59 9 -87 33 -30 57 -32 84 -5 20 20 27 55
12 64 -13 8 -27 -7 -27 -29 0 -27 -30 -30 -54 -6 -24 24 -18 48 12 53 11 2 22
9 25 16 6 19 -43 15 -61 -6z"/>
<path d="M583 670 c-63 -26 -53 -120 14 -120 29 0 27 23 -3 28 -32 6 -38 19
-20 47 21 32 58 31 66 -3 7 -30 24 -33 28 -6 2 14 -7 29 -24 43 -30 23 -30 23
-61 11z"/>
<path d="M2322 608 l-31 -33 44 -50 43 -50 36 34 c24 23 33 38 26 45 -6 6 -18
2 -35 -14 -19 -18 -28 -21 -37 -12 -8 8 -5 16 12 30 14 11 20 24 16 31 -6 9
-13 6 -26 -9 -18 -20 -40 -27 -40 -12 0 5 9 17 20 27 20 18 27 45 12 45 -4 0
-22 -15 -40 -32z"/>
<path d="M652 557 c-44 -45 -50 -57 -29 -57 13 0 97 80 97 93 0 19 -30 3 -68
-36z"/>
<path d="M693 521 l-42 -48 39 -32 c21 -17 41 -31 44 -31 15 0 3 26 -19 45
-18 15 -22 24 -15 35 8 12 13 11 33 -8 13 -12 26 -22 30 -22 15 0 6 23 -15 40
-17 13 -20 22 -12 30 7 7 16 5 29 -10 18 -20 45 -27 45 -12 0 6 -64 62 -72 62
-2 0 -22 -22 -45 -49z"/>
<path d="M2237 533 c-24 -17 -34 -30 -28 -36 7 -7 15 -6 24 1 11 10 20 4 42
-28 26 -38 55 -53 55 -29 0 6 -14 27 -31 46 -22 25 -27 39 -20 46 13 13 14 27
3 27 -4 0 -24 -12 -45 -27z"/>
<path d="M787 448 c-23 -33 -33 -56 -27 -62 11 -11 12 -11 39 34 l21 35 0 -52
c0 -28 4 -54 10 -58 13 -8 80 98 68 110 -6 7 -12 5 -18 -5 -5 -8 -16 -24 -25
-35 -15 -19 -16 -17 -13 29 2 28 -2 51 -8 53 -5 2 -27 -20 -47 -49z"/>
<path d="M2088 435 l-27 -15 32 -55 c17 -30 34 -55 37 -55 3 0 20 9 38 20 38
23 42 55 11 94 -23 29 -51 32 -91 11z m64 -22 c21 -19 23 -46 4 -62 -15 -12
-23 -5 -46 38 -10 19 -10 25 1 32 19 12 20 11 41 -8z"/>
<path d="M900 388 c-25 -41 -25 -53 0 -78 22 -22 46 -25 70 -10 19 12 5 25
-28 25 -34 0 -39 24 -12 56 l20 24 19 -22 c21 -26 41 -30 41 -10 0 22 -34 47
-63 47 -20 0 -33 -9 -47 -32z"/>
<path d="M2027 404 c-3 -4 1 -20 9 -36 21 -41 12 -45 -31 -12 -51 38 -62 21
-29 -47 31 -64 30 -63 43 -54 8 4 6 15 -4 35 -22 42 -19 43 24 14 56 -37 65
-24 33 46 -27 59 -33 66 -45 54z"/>
<path d="M1014 328 c-10 -29 -20 -55 -22 -59 -3 -7 70 -39 88 -39 23 0 7 21
-27 35 -27 12 -34 18 -25 27 9 9 18 9 37 0 32 -15 35 -15 35 1 0 7 -14 18 -32
25 -23 9 -29 15 -21 23 8 8 17 8 33 -1 12 -6 29 -8 38 -5 13 6 8 11 -23 25
-22 10 -45 19 -51 19 -5 1 -19 -22 -30 -51z"/>
<path d="M1875 338 c-11 -37 -15 -138 -5 -138 6 0 15 11 19 24 11 28 46 39 62
20 8 -10 16 -11 22 -5 6 6 -6 28 -34 60 -46 53 -57 60 -64 39z"/>
<path d="M1308 304 c-16 -8 -28 -21 -28 -30 0 -12 4 -13 21 -4 19 11 20 9 14
-27 -4 -21 -9 -46 -12 -55 -3 -13 1 -18 15 -18 16 0 20 10 25 58 4 32 9 66 13
75 8 21 -11 22 -48 1z"/>
<path d="M1639 301 c-20 -16 -22 -22 -11 -33 11 -11 15 -10 23 5 12 21 39 23
39 2 0 -8 -13 -34 -30 -57 -16 -22 -30 -45 -30 -50 0 -10 35 -11 79 -2 38 8
35 30 -3 26 -31 -3 -33 8 -6 33 22 20 27 64 8 83 -17 17 -42 15 -69 -7z"/>
<path d="M1402 298 c-17 -17 -15 -63 3 -78 8 -7 24 -10 35 -7 22 6 25 0 10
-23 -8 -13 -13 -13 -31 -2 -25 16 -37 8 -23 -16 29 -45 94 -2 94 62 0 60 -54
98 -88 64z m55 -52 c-10 -25 -37 -19 -37 7 0 13 3 27 7 31 11 11 36 -21 30
-38z"/>
<path d="M1526 298 c-3 -7 -7 -28 -10 -46 -6 -33 -6 -33 29 -26 33 6 35 5 35
-20 0 -19 -5 -26 -19 -26 -11 0 -21 6 -24 13 -4 9 -7 9 -18 -1 -12 -11 -11
-16 5 -28 41 -30 86 -6 86 46 0 28 -27 54 -47 48 -4 -2 -9 2 -11 7 -1 6 9 11
23 13 14 2 25 10 25 18 0 18 -69 20 -74 2z"/>
<path d="M1177 284 c-14 -15 -6 -34 14 -34 14 0 19 5 17 17 -3 18 -20 27 -31
17z"/>
<path d="M1782 263 c2 -10 10 -18 18 -18 8 0 16 8 18 18 2 12 -3 17 -18 17
-15 0 -20 -5 -18 -17z"/>
</g>
</svg>
